<svg xmlns="http://www.w3.org/2000/svg" version="1.0" width="100%" height="100%" viewBox="0 0 2160.000000 2160.000000" preserveAspectRatio="xMidYMid meet" transform="matrix(1, 0, 0, 1, 0, 0)">
      <defs fill="#000000">
        <linearGradient id="header-shape-gradient" x2="0.35" y2="1" fill="#000000">
          <stop offset="0%" stopColor="#000000" fill="#000000"/>
          <stop offset="50%" stopColor="#000000" fill="#000000"/>
          <stop offset="100%" stopColor="#000000" fill="#000000"/>
        </linearGradient>
      </defs>
      <g transform="translate(0.000000,2160.000000) scale(0.100000,-0.100000)" fill="#000000" stroke="none">
        <path fill="#a855f7" d="M9970 20368 c-148 -6 -362 -24 -405 -32 -11 -2 -54 -7 -95 -11 -131 -11 -421 -60 -818 -135 -127 -25 -319 -73 -415 -104 -141 -46 -203 -65 -270 -80 -91 -21 -496 -161 -592 -205 -22 -10 -83 -37 -135 -59 -88 -38 -143 -61 -310 -132 -36 -15 -83 -38 -105 -50 -22 -13 -114 -61 -205 -108 -91 -46 -199 -103 -240 -127 -41 -23 -113 -63 -160 -88 -125 -68 -266 -157 -472 -296 -101 -69 -219 -149 -263 -179 -44 -30 -92 -64 -106 -76 -14 -11 -39 -31 -55 -43 -145 -109 -278 -212 -319 -248 -167 -144 -218 -187 -290 -245 -105 -85 -327 -291 -412 -383 -37 -39 -76 -81 -88 -92 -22 -22 -95 -101 -245 -265 -52 -57 -106 -116 -120 -130 -14 -14 -43 -48 -65 -75 -22 -27 -50 -60 -62 -73 -12 -13 -41 -49 -65 -80 -24 -32 -77 -98 -118 -147 -41 -50 -93 -117 -115 -150 -36 -55 -87 -124 -182 -250 -21 -27 -54 -72 -74 -100 -19 -27 -52 -74 -72 -102 -20 -29 -37 -55 -37 -57 0 -3 -20 -33 -43 -68 -24 -35 -61 -92 -82 -128 -21 -36 -46 -74 -55 -85 -22 -25 -118 -191 -179 -310 -49 -95 -88 -163 -101 -180 -18 -22 -270 -536 -270 -550 0 -2 -14 -34 -31 -72 -42 -92 -63 -140 -84 -193 -10 -25 -36 -83 -57 -128 -21 -46 -38 -86 -38 -89 0 -3 -7 -19 -15 -36 -19 -44 -39 -100 -86 -247 -22 -69 -61 -190 -88 -270 -26 -80 -58 -181 -70 -225 -12 -44 -30 -107 -41 -140 -10 -33 -28 -103 -40 -155 -12 -52 -35 -151 -52 -220 -53 -216 -106 -477 -138 -680 -12 -74 -25 -153 -30 -175 -5 -22 -18 -128 -29 -235 -84 -801 -93 -1556 -26 -2130 8 -69 19 -168 25 -220 32 -286 185 -1039 274 -1345 26 -92 94 -299 121 -370 14 -38 38 -106 51 -150 37 -116 164 -455 199 -530 8 -16 29 -64 46 -105 17 -41 42 -97 54 -125 13 -27 35 -81 51 -120 62 -159 389 -763 489 -905 18 -26 47 -73 65 -106 18 -32 51 -87 73 -121 23 -35 87 -133 142 -219 55 -85 128 -195 162 -242 35 -48 73 -102 85 -120 94 -138 322 -411 553 -662 94 -102 238 -261 322 -355 272 -306 665 -663 1028 -935 48 -36 103 -79 124 -96 20 -17 61 -48 91 -68 30 -20 123 -83 205 -141 179 -125 372 -256 400 -271 17 -10 65 -39 270 -167 22 -14 112 -64 200 -112 178 -97 281 -156 337 -193 21 -13 97 -51 170 -83 73 -33 142 -64 153 -69 45 -21 436 -174 524 -204 99 -34 270 -99 306 -116 53 -25 451 -123 645 -160 63 -11 149 -28 190 -36 154 -29 308 -54 405 -63 55 -5 165 -16 245 -25 266 -27 543 -41 795 -39 269 1 658 24 820 48 91 13 355 48 465 61 25 3 90 14 145 24 55 10 143 26 195 35 52 10 145 30 205 46 61 16 146 33 189 39 96 12 188 39 286 84 41 19 116 47 165 62 128 38 206 66 315 112 52 22 154 65 225 95 72 30 158 69 193 86 34 17 66 31 70 31 18 0 424 211 492 256 19 12 77 45 127 71 123 64 334 186 405 234 32 22 60 39 63 39 3 0 18 8 33 19 15 10 72 48 127 83 85 55 215 141 299 198 12 8 29 21 37 27 7 7 95 73 194 146 165 122 380 295 480 387 22 20 72 65 110 100 115 104 497 496 614 630 193 222 387 473 517 670 46 69 96 143 112 165 48 68 87 143 78 152 -9 9 -55 -41 -111 -123 -82 -120 -339 -449 -448 -571 -29 -32 -77 -88 -107 -123 -188 -218 -578 -607 -809 -805 -52 -44 -99 -85 -105 -90 -6 -6 -72 -59 -146 -119 -74 -59 -142 -113 -150 -119 -8 -7 -55 -43 -105 -80 -49 -37 -106 -80 -125 -95 -19 -16 -66 -50 -105 -77 -38 -26 -86 -60 -105 -75 -108 -85 -398 -261 -620 -377 -160 -84 -293 -154 -400 -212 -317 -169 -656 -313 -970 -412 -52 -17 -106 -35 -120 -41 -82 -34 -349 -101 -470 -119 -47 -6 -105 -21 -130 -32 -54 -23 -190 -59 -315 -82 -49 -9 -124 -23 -165 -30 -64 -12 -238 -39 -385 -60 -22 -3 -71 -10 -110 -16 -83 -12 -322 -36 -490 -49 -138 -11 -880 -16 -970 -7 -33 4 -119 11 -192 18 -73 6 -172 17 -220 25 -48 7 -178 27 -288 44 -402 60 -1009 200 -1170 270 -30 13 -225 80 -265 91 -19 6 -44 14 -55 19 -11 5 -51 21 -90 36 -277 105 -542 234 -925 449 -96 54 -191 107 -210 118 -19 10 -55 31 -80 47 -25 16 -65 40 -90 53 -25 14 -94 57 -155 96 -60 39 -144 91 -185 116 -70 42 -153 98 -244 162 -21 16 -49 35 -61 43 -21 14 -201 151 -294 225 -65 51 -200 166 -293 250 -49 44 -106 93 -126 108 -65 49 -312 277 -447 412 -125 125 -178 183 -296 324 -30 35 -83 96 -119 136 -255 279 -458 533 -668 834 -161 231 -359 545 -438 696 -20 38 -59 105 -87 150 -27 44 -65 109 -84 145 -99 185 -217 418 -263 520 -28 63 -69 151 -90 195 -22 44 -50 109 -64 145 -13 36 -55 142 -93 235 -39 94 -82 206 -97 250 -14 44 -31 89 -36 100 -13 27 -50 133 -60 170 -4 17 -29 93 -55 170 -43 128 -66 218 -154 610 -46 207 -89 457 -111 648 -6 54 -17 120 -24 146 -7 26 -13 69 -14 97 -2 27 -9 119 -17 204 -27 295 -38 526 -38 835 0 354 22 894 38 955 2 8 9 86 14 172 6 87 17 195 25 240 8 46 24 148 36 228 28 195 48 307 75 420 13 52 26 115 30 140 3 25 12 65 20 90 7 25 29 113 49 196 41 173 133 500 166 589 12 33 37 110 57 170 60 186 100 296 143 395 23 52 58 133 76 180 19 47 41 99 49 115 7 17 23 57 35 90 12 33 26 67 31 75 12 20 60 121 89 190 13 30 29 62 36 70 7 8 46 85 86 170 76 159 91 187 158 300 21 36 45 79 53 95 8 17 21 36 30 44 10 7 17 17 17 22 0 5 16 33 35 63 19 30 35 57 35 60 0 20 264 410 350 517 45 56 97 125 116 154 18 30 62 87 96 129 35 41 88 105 118 142 30 37 75 91 100 118 25 28 74 85 109 126 100 119 371 392 550 553 90 82 173 158 185 169 36 34 217 184 416 344 69 56 215 163 244 178 11 6 58 37 102 69 107 75 367 243 424 273 53 28 71 39 125 74 93 61 782 401 920 455 181 70 304 118 350 137 85 35 269 95 515 168 129 39 257 77 285 85 27 9 81 20 120 26 38 5 106 18 150 28 134 31 571 103 745 121 58 6 152 18 210 26 279 38 419 45 908 46 269 1 493 -1 499 -5 6 -4 102 -13 214 -22 112 -8 239 -21 284 -29 170 -30 441 -73 570 -91 93 -13 168 -28 385 -75 47 -10 130 -32 185 -49 55 -16 147 -42 205 -56 218 -56 482 -148 725 -252 77 -33 151 -64 165 -68 58 -17 270 -116 480 -223 124 -64 260 -133 303 -154 43 -21 109 -58 145 -82 37 -24 94 -58 127 -77 120 -67 483 -308 535 -354 14 -13 52 -40 85 -60 86 -54 277 -200 355 -270 36 -33 137 -121 225 -195 169 -144 398 -356 480 -442 48 -52 205 -221 331 -357 33 -36 80 -91 104 -121 25 -30 47 -57 50 -60 25 -25 160 -183 215 -253 39 -49 79 -101 91 -115 66 -84 234 -314 234 -321 0 -4 28 -44 63 -89 120 -157 261 -375 347 -537 51 -97 72 -131 114 -195 20 -30 36 -59 36 -65 0 -6 18 -28 39 -49 32 -31 44 -37 65 -32 28 7 285 255 305 294 7 14 10 36 5 55 -10 48 -150 314 -267 507 -38 63 -92 153 -120 200 -28 47 -66 105 -83 130 -18 25 -85 122 -149 215 -232 340 -291 424 -331 471 -73 87 -128 158 -155 199 -62 94 -446 523 -649 725 -149 148 -538 501 -596 541 -12 8 -43 33 -70 56 -27 23 -76 62 -109 87 -86 65 -92 71 -171 130 -39 30 -142 103 -230 162 -87 59 -206 139 -264 178 -126 84 -258 160 -478 272 -90 45 -169 87 -175 92 -20 17 -188 98 -262 127 -38 15 -101 42 -140 60 -38 18 -106 45 -150 60 -44 16 -133 50 -197 76 -65 26 -132 51 -150 54 -18 4 -46 14 -61 22 -117 59 -659 220 -892 264 -55 10 -149 30 -210 44 -60 14 -193 41 -295 60 -102 19 -228 44 -280 54 -105 22 -211 38 -310 46 -36 3 -137 12 -225 21 -339 32 -728 40 -1105 22z"/>
        <path fill="#a855f7" d="M9480 19479 c-266 -22 -911 -114 -1095 -155 -161 -36 -557 -136 -645 -162 -293 -89 -379 -116 -510 -162 -80 -28 -158 -55 -174 -60 -31 -10 -161 -65 -261 -109 -33 -15 -91 -40 -130 -55 -96 -38 -173 -74 -265 -123 -25 -14 -115 -61 -200 -105 -157 -81 -197 -103 -260 -143 -19 -12 -105 -66 -190 -120 -85 -53 -180 -116 -210 -139 -30 -23 -82 -59 -115 -79 -33 -20 -94 -63 -135 -96 -136 -109 -180 -145 -208 -171 -16 -14 -104 -92 -197 -175 -178 -158 -378 -353 -507 -495 -83 -91 -93 -102 -178 -200 -30 -35 -67 -76 -81 -90 -14 -14 -46 -52 -71 -85 -25 -33 -73 -91 -107 -129 -34 -38 -86 -106 -116 -150 -29 -45 -81 -119 -115 -166 -33 -47 -90 -130 -126 -185 -37 -55 -79 -118 -94 -140 -15 -22 -37 -58 -49 -80 -48 -90 -72 -130 -85 -144 -8 -9 -33 -54 -55 -100 -23 -47 -47 -92 -55 -100 -27 -32 -198 -379 -313 -636 -24 -55 -49 -109 -54 -120 -5 -11 -20 -54 -35 -95 -28 -79 -36 -100 -78 -192 -14 -31 -26 -64 -26 -73 0 -8 -17 -59 -38 -113 -22 -53 -42 -110 -46 -127 -4 -16 -18 -57 -31 -90 -13 -33 -31 -89 -40 -125 -17 -67 -47 -173 -90 -315 -35 -117 -51 -180 -70 -275 -9 -47 -34 -161 -56 -255 -100 -438 -155 -1006 -153 -1595 2 -529 29 -861 114 -1400 10 -63 21 -142 25 -175 8 -70 76 -398 105 -500 10 -38 44 -168 74 -289 52 -204 125 -443 181 -596 49 -133 77 -205 85 -215 4 -5 11 -21 15 -35 4 -14 13 -38 21 -55 7 -16 38 -93 69 -170 77 -191 261 -562 370 -745 18 -30 56 -95 85 -145 62 -104 281 -438 398 -605 79 -112 106 -147 214 -279 29 -36 77 -94 106 -130 56 -70 142 -169 333 -385 256 -290 626 -634 827 -770 24 -16 62 -46 86 -67 23 -21 83 -64 132 -97 49 -32 140 -104 202 -159 95 -85 135 -113 260 -179 81 -42 165 -89 187 -103 89 -55 931 -471 954 -471 5 0 39 -13 76 -30 36 -16 105 -42 153 -56 48 -15 125 -39 172 -55 177 -57 261 -79 495 -129 28 -6 100 -21 160 -34 61 -14 148 -29 195 -36 47 -6 99 -15 115 -20 17 -5 62 -12 100 -15 39 -3 108 -10 155 -16 171 -19 447 -50 534 -60 49 -5 215 -10 370 -11 356 -2 363 0 449 114 32 42 86 132 121 200 35 68 76 146 92 175 46 84 46 84 -257 88 -230 4 -466 18 -759 45 -101 9 -402 57 -505 80 -206 46 -553 134 -639 162 -32 10 -95 29 -140 43 -85 25 -385 129 -471 163 -130 52 -348 143 -382 160 -21 11 -103 53 -183 94 -80 41 -187 96 -238 122 -51 26 -105 59 -121 72 -16 13 -32 24 -37 24 -11 0 -140 89 -155 106 -6 8 -16 14 -22 14 -6 0 -33 17 -61 38 -28 20 -71 51 -96 67 -25 17 -47 33 -50 36 -7 8 -106 81 -216 159 -171 122 -177 126 -393 305 -110 90 -238 217 -344 340 -33 39 -66 75 -71 81 -6 6 -47 50 -91 99 -44 49 -132 146 -195 215 -155 170 -256 291 -309 370 -24 36 -60 85 -81 110 -61 74 -350 515 -350 535 0 3 -22 41 -49 83 -54 84 -172 305 -252 472 -61 126 -85 176 -127 255 -57 110 -210 480 -236 571 -14 49 -41 136 -61 193 -37 108 -145 494 -169 604 -59 268 -77 356 -91 452 -9 61 -25 157 -35 215 -11 58 -24 161 -30 230 -5 69 -17 180 -25 248 -21 177 -35 539 -35 907 0 261 4 350 20 485 12 91 30 239 41 330 10 91 21 172 24 180 2 8 12 62 20 120 9 58 25 162 36 233 10 70 23 146 29 170 5 23 21 89 34 147 14 58 34 150 45 205 25 129 60 248 106 366 21 52 57 148 80 214 23 66 50 134 58 150 8 17 41 95 72 175 30 80 76 186 100 237 25 50 45 94 45 97 0 4 10 23 23 44 13 20 40 76 60 123 62 144 200 405 302 568 64 104 85 138 149 245 10 17 39 60 65 95 50 69 101 140 202 283 37 51 98 129 136 173 37 44 90 107 117 140 167 208 330 378 571 598 77 71 152 144 168 162 25 31 92 86 324 267 48 37 103 83 122 101 20 19 63 51 96 72 33 21 78 52 100 70 22 17 63 44 90 60 28 16 69 43 92 62 23 18 72 49 110 69 59 31 185 104 263 153 34 21 66 38 200 108 63 33 133 69 155 81 22 12 60 30 85 40 25 10 68 28 95 40 79 34 284 112 294 112 4 0 33 11 62 23 74 32 285 105 339 116 25 6 86 22 135 36 50 14 137 34 194 45 57 11 142 29 190 40 77 19 188 36 351 55 30 3 127 17 215 30 274 41 764 55 1180 34 238 -13 634 -66 830 -112 33 -8 105 -22 160 -31 152 -26 297 -55 357 -72 96 -27 191 -53 303 -83 159 -42 381 -108 402 -119 10 -6 61 -24 113 -42 52 -17 154 -60 225 -95 72 -35 159 -73 194 -84 35 -11 69 -25 75 -30 6 -4 43 -19 81 -31 113 -37 622 -290 725 -361 30 -20 85 -52 165 -94 33 -18 101 -56 150 -85 50 -28 131 -75 180 -103 50 -28 117 -69 150 -91 33 -22 96 -62 140 -89 74 -45 158 -110 259 -198 22 -20 68 -54 101 -75 33 -21 92 -68 130 -104 39 -36 96 -83 129 -105 32 -21 93 -73 135 -114 42 -42 101 -96 131 -121 56 -46 297 -286 378 -375 24 -27 70 -77 102 -110 69 -74 143 -157 190 -215 19 -24 53 -64 75 -90 22 -25 63 -75 90 -111 28 -35 73 -94 102 -131 29 -36 59 -75 67 -85 36 -43 91 -113 147 -188 32 -44 66 -89 75 -100 50 -66 137 -184 149 -204 6 -9 49 -76 98 -148 48 -72 87 -135 87 -138 0 -4 15 -28 34 -54 18 -25 43 -64 54 -86 29 -57 118 -135 155 -135 28 0 168 105 270 202 61 59 67 68 61 94 -9 39 -60 131 -128 229 -30 44 -78 118 -107 165 -28 47 -69 110 -91 140 -22 30 -62 89 -89 130 -27 41 -77 114 -111 162 -35 48 -99 139 -143 203 -44 63 -124 170 -178 237 -54 68 -122 155 -151 193 -29 39 -75 95 -102 125 -27 30 -70 80 -94 110 -25 30 -49 60 -55 66 -5 6 -55 62 -110 125 -122 139 -673 693 -781 784 -44 37 -101 88 -129 114 -27 26 -79 72 -115 101 -36 29 -90 76 -121 104 -30 28 -68 60 -84 71 -15 11 -60 45 -99 75 -39 31 -118 87 -176 125 -58 38 -132 90 -166 115 -34 25 -74 52 -90 61 -16 9 -85 51 -153 93 -68 41 -153 92 -190 112 -36 20 -97 56 -136 79 -38 23 -119 68 -180 100 -60 32 -141 75 -180 95 -124 67 -438 201 -580 246 -44 15 -84 29 -90 33 -15 11 -140 56 -220 80 -38 12 -126 39 -195 61 -69 21 -152 46 -185 54 -281 72 -742 175 -815 183 -19 2 -129 18 -243 34 -349 49 -677 71 -1147 74 -228 2 -462 -1 -520 -6z"/>
        <path fill="#a855f7" d="M20325 17641 c-92 -23 -139 -60 -376 -299 -434 -438 -549 -580 -655 -813 -151 -333 -218 -432 -458 -679 -158 -163 -333 -357 -541 -599 -27 -32 -78 -90 -113 -129 -35 -38 -78 -90 -95 -113 -43 -60 -115 -138 -292 -314 -163 -164 -367 -332 -555 -459 -232 -156 -316 -241 -471 -476 -52 -79 -127 -154 -239 -241 -80 -61 -135 -94 -468 -280 -73 -41 -141 -79 -150 -84 -9 -6 -46 -27 -81 -48 -71 -42 -313 -220 -376 -276 -68 -60 -150 -129 -242 -203 -161 -129 -217 -180 -368 -334 -205 -209 -241 -224 -461 -193 -218 30 -562 215 -735 395 -109 113 -245 284 -372 465 -20 30 -52 74 -70 98 -17 24 -39 54 -47 66 -17 26 -94 129 -162 218 -82 108 -281 376 -326 439 -83 117 -248 298 -345 379 -109 92 -259 262 -331 378 -16 25 -63 111 -104 191 -89 172 -186 345 -239 426 -21 33 -56 89 -78 126 -55 92 -132 215 -165 263 -15 22 -37 56 -48 76 -11 20 -26 47 -34 60 -7 13 -38 55 -69 94 -30 38 -89 115 -130 170 -41 55 -109 143 -152 195 -43 52 -88 107 -100 121 -199 242 -413 453 -505 499 -34 17 -84 33 -110 36 -43 5 -217 -13 -352 -36 -30 -5 -122 -19 -205 -30 -177 -24 -320 -50 -540 -98 -88 -19 -198 -42 -245 -52 -47 -10 -98 -24 -115 -30 -16 -6 -108 -31 -205 -55 -290 -73 -273 -68 -500 -139 -179 -55 -280 -73 -475 -85 -99 -6 -245 -20 -325 -30 -80 -11 -185 -24 -235 -30 -289 -37 -376 -55 -401 -82 -29 -32 -9 -65 63 -105 181 -99 315 -111 633 -53 117 21 167 23 203 10 28 -11 52 -61 43 -89 -11 -33 -85 -143 -140 -207 -52 -61 -80 -108 -69 -119 16 -15 71 -3 122 28 31 19 81 46 111 61 104 52 355 208 409 254 248 214 322 243 736 292 254 29 826 38 1023 16 75 -9 173 -18 218 -21 101 -6 128 -17 183 -69 71 -69 241 -311 303 -433 14 -27 40 -74 57 -104 17 -30 45 -84 62 -120 17 -36 62 -130 100 -209 65 -134 185 -464 229 -626 10 -38 39 -123 64 -188 44 -115 51 -144 48 -199 -3 -41 -33 -52 -138 -50 -92 2 -206 31 -260 67 -13 8 -33 15 -45 15 -12 0 -45 23 -76 53 -51 49 -56 58 -61 107 -3 29 1 90 8 135 11 71 11 92 -3 153 -25 109 -49 147 -184 283 -150 152 -151 156 -99 276 42 95 48 172 17 238 -32 70 -96 136 -163 169 -89 44 -179 32 -285 -40 -122 -83 -192 -163 -262 -302 -25 -50 -39 -66 -69 -79 -228 -97 -350 -178 -491 -325 -91 -95 -127 -148 -169 -248 -54 -128 -65 -246 -37 -405 9 -48 24 -110 34 -139 10 -28 31 -85 46 -126 15 -41 42 -97 60 -125 50 -78 99 -183 124 -265 13 -41 31 -91 42 -111 22 -44 83 -98 159 -140 30 -17 64 -40 76 -50 11 -11 47 -30 80 -42 33 -13 82 -41 108 -61 44 -33 65 -46 154 -95 43 -23 107 -25 160 -6 34 13 72 44 137 109 84 84 94 100 142 206 28 63 58 132 67 152 21 53 52 65 111 43 50 -20 66 -34 161 -137 101 -110 141 -205 151 -354 6 -111 -12 -224 -46 -280 -17 -28 -29 -33 -130 -57 -184 -44 -327 -128 -487 -284 -293 -285 -308 -298 -664 -528 -91 -59 -287 -160 -493 -254 -160 -73 -314 -125 -501 -171 -232 -56 -370 -118 -621 -275 -136 -86 -609 -332 -713 -371 -51 -20 -65 -27 -277 -141 -260 -140 -353 -223 -426 -381 -21 -45 -47 -94 -58 -109 -28 -35 -26 -77 8 -143 33 -66 60 -79 123 -61 33 10 67 37 149 120 58 58 115 120 125 137 73 119 200 216 334 253 167 46 400 102 610 146 215 45 495 116 625 160 194 64 245 85 426 174 92 44 170 81 174 81 3 0 31 12 62 26 31 14 86 35 122 46 133 42 389 132 501 175 63 25 156 60 206 78 50 18 100 38 110 43 31 17 136 62 145 62 4 0 68 28 141 61 73 34 151 69 173 79 127 54 159 70 250 121 224 126 304 157 369 145 19 -4 85 -40 148 -82 62 -41 137 -86 166 -99 136 -62 381 -106 592 -106 174 0 202 -6 328 -65 53 -25 106 -50 117 -54 37 -14 219 -141 282 -196 123 -107 219 -263 237 -384 3 -19 11 -104 16 -189 24 -336 49 -492 112 -675 38 -109 40 -124 35 -193 -3 -41 -10 -80 -15 -86 -9 -11 -23 -51 -142 -402 -28 -82 -57 -166 -64 -185 -8 -19 -26 -75 -41 -125 -14 -49 -49 -162 -76 -250 -27 -88 -60 -196 -73 -240 -103 -340 -218 -697 -259 -805 -152 -396 -172 -486 -187 -815 -9 -204 -29 -309 -89 -454 -58 -138 -112 -270 -161 -395 -54 -136 -195 -410 -261 -507 -21 -32 -39 -62 -39 -66 0 -5 -12 -26 -27 -48 -15 -22 -46 -76 -68 -120 -23 -44 -46 -89 -51 -100 -6 -11 -19 -36 -28 -55 -59 -116 -180 -347 -186 -355 -4 -5 -32 -57 -63 -115 -80 -151 -214 -379 -356 -607 -68 -109 -131 -209 -140 -223 -8 -14 -22 -37 -31 -52 -8 -15 -32 -57 -54 -95 -21 -37 -57 -99 -79 -138 -254 -443 -323 -651 -357 -1081 -5 -65 -12 -151 -16 -190 -8 -82 7 -160 38 -199 35 -45 57 -31 134 80 39 58 129 147 184 183 30 20 80 62 111 92 50 50 58 63 68 116 59 303 115 420 231 479 25 12 91 30 148 39 202 34 381 117 497 231 93 92 109 127 101 219 -3 39 -14 106 -23 148 -24 114 -21 118 118 152 63 15 131 34 151 42 20 7 75 18 122 24 57 7 113 22 164 44 78 34 119 45 252 66 41 7 84 19 96 27 12 7 50 20 85 27 73 16 177 45 199 57 31 16 190 88 340 154 118 52 166 78 200 111 25 24 72 57 106 73 34 16 91 48 128 70 36 23 69 41 72 41 3 0 51 26 107 58 56 32 110 62 119 65 10 3 57 33 105 65 49 33 120 80 158 105 39 25 116 80 172 124 56 43 156 118 222 167 67 49 121 93 121 97 0 4 37 38 83 74 249 200 641 587 680 672 6 13 16 23 24 23 7 0 13 4 13 9 0 6 14 25 31 43 17 18 44 52 61 76 17 23 35 42 38 42 11 0 83 90 77 96 -5 6 -73 -61 -357 -352 -247 -253 -343 -342 -505 -468 -71 -55 -137 -106 -145 -113 -34 -27 -173 -124 -265 -185 -55 -36 -140 -92 -190 -124 -136 -89 -452 -277 -620 -368 -222 -119 -261 -137 -350 -156 -152 -32 -383 -124 -507 -202 -77 -48 -99 -56 -200 -73 -51 -8 -96 -19 -102 -25 -5 -5 -17 -10 -26 -10 -9 0 -32 -8 -53 -19 -20 -10 -81 -28 -134 -40 -54 -12 -127 -29 -163 -38 -36 -9 -97 -19 -135 -22 -41 -4 -90 -15 -115 -28 -68 -32 -183 -73 -208 -73 -66 0 -33 154 64 297 73 109 264 354 328 423 23 25 86 95 141 155 55 61 114 124 131 140 28 27 66 69 152 170 14 17 60 69 101 116 117 132 201 239 201 254 0 3 17 31 37 62 54 85 148 287 176 379 87 281 83 255 102 737 9 243 51 392 190 667 108 215 211 380 740 1178 297 448 415 647 548 922 98 203 111 234 157 370 51 152 84 199 182 257 39 24 72 43 74 43 20 0 478 312 560 382 93 78 246 235 316 323 43 55 237 310 283 373 11 15 83 110 159 212 77 101 154 207 172 235 19 27 63 91 98 140 35 50 97 137 137 195 136 198 180 250 407 477 125 126 263 268 307 317 265 295 247 278 490 462 334 252 515 448 780 846 36 54 65 100 65 103 0 2 28 51 62 107 34 57 123 225 198 373 188 370 232 455 256 490 12 17 46 69 77 116 77 120 114 147 228 165 114 18 175 41 280 105 169 102 285 247 343 429 18 58 36 130 40 161 10 83 49 190 115 314 118 222 155 291 194 355 22 36 65 126 95 200 52 127 55 141 60 237 4 93 2 105 -18 139 -20 31 -75 76 -90 73 -3 -1 -18 -4 -35 -8z"/>
        <path fill="#a855f7" d="M18724 14263 c-20 -23 -154 -257 -200 -350 -20 -41 -36 -88 -36 -107 0 -35 61 -202 115 -316 17 -36 39 -92 48 -125 10 -33 38 -115 63 -183 24 -68 48 -138 51 -155 4 -18 21 -77 37 -132 16 -55 36 -129 44 -165 7 -36 25 -110 40 -165 14 -55 30 -120 35 -145 6 -25 17 -74 25 -110 8 -36 21 -106 28 -155 7 -50 25 -157 39 -240 36 -213 65 -437 77 -605 6 -80 16 -174 22 -210 14 -85 14 -966 0 -1160 -15 -196 -22 -341 -16 -310 3 14 10 30 14 35 14 16 39 183 60 390 6 55 19 156 30 225 40 260 58 1045 32 1390 -6 85 -14 220 -17 300 -6 142 -35 445 -55 565 -5 33 -17 112 -25 175 -19 134 -58 348 -85 470 -11 47 -30 135 -44 195 -53 241 -98 425 -126 515 -17 52 -37 129 -45 170 -8 41 -25 104 -36 140 -26 82 -44 97 -75 63z"/>
        <path fill="#a855f7" d="M18035 13352 c-17 -8 -58 -38 -92 -66 -34 -28 -96 -78 -137 -111 -101 -80 -121 -108 -119 -165 1 -48 120 -409 173 -525 13 -30 85 -247 119 -362 17 -57 45 -149 62 -205 29 -97 54 -201 99 -413 10 -50 23 -102 28 -116 6 -14 20 -79 32 -145 18 -104 51 -283 81 -439 5 -27 13 -93 19 -145 5 -52 16 -153 24 -225 8 -71 18 -177 21 -235 3 -58 11 -170 18 -250 19 -229 16 -919 -6 -1190 -10 -124 -24 -261 -32 -305 -8 -44 -19 -134 -25 -200 -21 -217 -85 -538 -157 -790 -19 -66 -45 -165 -58 -220 -40 -166 -205 -665 -256 -772 -30 -64 -59 -146 -59 -172 0 -43 98 121 125 209 4 14 29 68 56 120 26 52 59 128 73 169 15 41 30 79 34 85 3 6 14 31 23 56 9 25 26 70 38 100 33 82 65 175 95 270 14 47 41 132 60 190 19 59 39 133 46 165 6 33 23 101 37 150 14 50 33 133 43 185 11 52 29 138 40 190 53 230 94 467 115 660 8 80 20 172 25 205 4 33 13 161 20 285 6 124 15 293 20 375 13 191 13 417 0 615 -5 85 -14 261 -20 390 -6 129 -15 269 -20 310 -5 41 -14 149 -20 240 -6 91 -18 206 -26 255 -8 50 -19 121 -24 158 -5 37 -21 127 -34 200 -13 73 -39 211 -56 307 -18 96 -41 207 -51 245 -11 39 -35 138 -54 222 -20 83 -58 220 -85 305 -28 84 -57 176 -66 203 -27 85 -75 193 -87 198 -7 3 -26 -2 -42 -11z"/>
        <path fill="#a855f7" d="M17330 5479 c0 -5 5 -7 10 -4 6 3 10 8 10 11 0 2 -4 4 -10 4 -5 0 -10 -5 -10 -11z"/>
      </g>
    </svg>